<svg xmlns="http://www.w3.org/2000/svg" width="123.414" height="90.181" viewBox="0 0 123.414 90.181">
  <g id="devapi-by-tivit-color" transform="translate(0 -0.325)">
    <g id="Grupo_5773" data-name="Grupo 5773" transform="translate(0 0.325)">
      <path id="Caminho_20" data-name="Caminho 20" d="M19.014,209.829a9.846,9.846,0,0,0-2.569-3.369,11.6,11.6,0,0,0-3.874-2.127,15.351,15.351,0,0,0-4.8-.737H.969a.966.966,0,0,0-.969.969v19.625a.966.966,0,0,0,.969.969H7.791a14.382,14.382,0,0,0,4.8-.821,11.864,11.864,0,0,0,3.874-2.211,10.494,10.494,0,0,0,2.569-3.411A11.324,11.324,0,0,0,19.014,209.829Zm-5.5,6.907a5.109,5.109,0,0,1-1.327,1.811,5.789,5.789,0,0,1-1.979,1.137,7.551,7.551,0,0,1-2.464.4H5.833V208.691H7.749a8.21,8.21,0,0,1,2.464.358,5.4,5.4,0,0,1,1.979,1.032,5.422,5.422,0,0,1,1.327,1.748A5.667,5.667,0,0,1,14,214.335,5.967,5.967,0,0,1,13.518,216.735Z" transform="translate(0 -160.792)" fill="#2c2d66"/>
      <path id="Caminho_21" data-name="Caminho 21" d="M551.595,203.6h6.738a.288.288,0,0,1,.295.295v20.973a.288.288,0,0,1-.295.295h-6.738a.288.288,0,0,1-.295-.295V203.895A.288.288,0,0,1,551.595,203.6Z" transform="translate(-435.214 -160.797)" fill="#2c2d66"/>
      <path id="Caminho_22" data-name="Caminho 22" d="M447.478,209.8a10.666,10.666,0,0,0-2.106-3.39,9.182,9.182,0,0,0-3.222-2.211,10.2,10.2,0,0,0-4.106-.8,8.517,8.517,0,0,0-3.559.695,6.666,6.666,0,0,0-1.979,1.327l-.042.021a.322.322,0,0,1-.211.084.288.288,0,0,1-.295-.295h0v-1.474a.315.315,0,0,0-.063-.211.272.272,0,0,0-.232-.105h-5.37a.288.288,0,0,0-.295.295h0v26.426a.288.288,0,0,0,.295.295h6.022a.288.288,0,0,0,.295-.295v-6.464a.288.288,0,0,1,.295-.295h0a.671.671,0,0,1,.19.063,7.8,7.8,0,0,0,4.969,1.474,10.2,10.2,0,0,0,4.106-.8,9.022,9.022,0,0,0,3.222-2.253,10.355,10.355,0,0,0,2.106-3.432,11.7,11.7,0,0,0,.758-4.338A12.525,12.525,0,0,0,447.478,209.8Zm-7.075,6.254a4.791,4.791,0,0,1-.948,1.39,3.608,3.608,0,0,1-1.327.821,4.723,4.723,0,0,1-1.537.274,4.8,4.8,0,0,1-1.516-.274,3.607,3.607,0,0,1-1.327-.821,4.52,4.52,0,0,1-.948-1.39,5.347,5.347,0,0,1,0-3.874,3.74,3.74,0,0,1,.948-1.348,3.512,3.512,0,0,1,1.327-.779,4.664,4.664,0,0,1,3.074.021,3.789,3.789,0,0,1,1.327.821,4.626,4.626,0,0,1,.926,1.369,4.87,4.87,0,0,1,.337,1.9A4.8,4.8,0,0,1,440.4,216.051Z" transform="translate(-336.298 -160.635)" fill="#2c2d66"/>
      <path id="Caminho_23" data-name="Caminho 23" d="M230.43,203.6l-3.79,7.96-.842,1.79-4.569-9.749H213.5l10.613,20.551c-.021-.042-.042-.063-.042-.105a.357.357,0,0,1,.042.105l.021.042a1.906,1.906,0,0,0,2.59.758,1.857,1.857,0,0,0,.821-.927l.211-.358,10.4-20.046Z" transform="translate(-168.544 -160.797)" fill="#2c2d66"/>
      <path id="Caminho_24" data-name="Caminho 24" d="M334.674,223.5c.042.042.042.084.063.105l-9.054-19.562h0a.944.944,0,0,0-1.221-.569.9.9,0,0,0-.568.569l-9.033,19.52h0a.936.936,0,0,0,.379,1.284.883.883,0,0,0,.463.105h4.78a.978.978,0,0,0,.884-.569h0l3.432-7.749,3.411,7.77h0a.944.944,0,0,0,.884.569h4.8a.935.935,0,0,0,.948-.969.809.809,0,0,0-.168-.505Z" transform="translate(-248.468 -160.649)" fill="#2c2d66"/>
      <path id="Caminho_25" data-name="Caminho 25" d="M130.081,209.6a9.164,9.164,0,0,0-2.021-3.1,9.447,9.447,0,0,0-3.222-2.127,10.786,10.786,0,0,0-4.232-.779,11.986,11.986,0,0,0-4.464.821,11.374,11.374,0,0,0-3.622,2.253,10.732,10.732,0,0,0-2.4,11.96,10.2,10.2,0,0,0,2.464,3.432,11.537,11.537,0,0,0,3.79,2.253,13.449,13.449,0,0,0,4.822.842A14.077,14.077,0,0,0,128.9,222.9a.962.962,0,0,0,.337-1.306c-.042-.063-.084-.105-.126-.168.042.042.042.063.084.105l-1.685-3.074h0A.949.949,0,0,0,126.27,218h-.021a10.672,10.672,0,0,1-1.916.758,9.705,9.705,0,0,1-2.906.421,7.046,7.046,0,0,1-2.969-.569,3.7,3.7,0,0,1-1.811-1.769h12.866a.966.966,0,0,0,.969-.969h0a.464.464,0,0,1-.021.168c.042-.253.105-.547.147-.821a13.774,13.774,0,0,0,.126-1.874A9.765,9.765,0,0,0,130.081,209.6Zm-13.624,2.632a4.552,4.552,0,0,1,1.5-2.274,3.949,3.949,0,0,1,4.8.021,2.887,2.887,0,0,1,1.095,2.253Z" transform="translate(-86.241 -160.792)" fill="#2c2d66"/>
      <path id="Caminho_26" data-name="Caminho 26" d="M182.551,23.1a13.4,13.4,0,0,0-11.939-10.528,25.852,25.852,0,0,0-8.76-8.444,28.129,28.129,0,0,0-28.258,0,26.043,26.043,0,0,0-8.76,8.444A13.4,13.4,0,0,0,112.9,23.1a6.322,6.322,0,0,0-3.9,5.77,6.738,6.738,0,0,0,13.455,0,6.264,6.264,0,0,0-3.348-5.5,7.553,7.553,0,0,1,7.307-5.117l1.327.042a1.3,1.3,0,0,0,1.011-.484l.653-1.137a21.175,21.175,0,0,1,36.681,0l.59,1.074h.021a1.337,1.337,0,0,0,1.074.526l1.327-.042a7.553,7.553,0,0,1,7.307,5.117,6.264,6.264,0,0,0-3.348,5.5,6.728,6.728,0,0,0,13.434.021A6.419,6.419,0,0,0,182.551,23.1Zm-.779,5.77a2.069,2.069,0,1,1-2.064-1.916A2,2,0,0,1,181.772,28.873Zm-63.971,0a2.09,2.09,0,1,1-2.085-1.937,2.021,2.021,0,0,1,2.085,1.937Z" transform="translate(-86.048 -0.325)" fill="#2c2d66"/>
    </g>
    <g id="Grupo_5777" data-name="Grupo 5777" transform="translate(38.702 78.188)">
      <g id="Grupo_5775" data-name="Grupo 5775" transform="translate(20.804 0.632)">
        <g id="Grupo_5774" data-name="Grupo 5774" transform="translate(48.178 0.021)">
          <path id="Caminho_27" data-name="Caminho 27" d="M519.275,373.2a46.221,46.221,0,0,0-7.875.674l.358,1.916a40.49,40.49,0,0,1,6.443-.632v7.2h2.106v-7.2a46.059,46.059,0,0,1,6.443.632l.358-1.916A45.73,45.73,0,0,0,519.275,373.2Z" transform="translate(-511.4 -373.2)" fill="#2c2d66"/>
        </g>
        <path id="Caminho_28" data-name="Caminho 28" d="M371.9,383.623h2.106V374.8H371.9v8.823Z" transform="translate(-353.096 -374.442)" fill="#2c2d66"/>
        <path id="Caminho_29" data-name="Caminho 29" d="M282.6,373.974l.358,1.916a40.512,40.512,0,0,1,6.443-.632v7.2h2.106v-7.2a46.078,46.078,0,0,1,6.443.632l.358-1.916a45.722,45.722,0,0,0-7.833-.674A46.216,46.216,0,0,0,282.6,373.974Z" transform="translate(-282.6 -373.258)" fill="#2c2d66"/>
        <path id="Caminho_30" data-name="Caminho 30" d="M486.6,383.623h2.106V374.8H486.6Z" transform="translate(-443.644 -374.442)" fill="#2c2d66"/>
        <path id="Caminho_31" data-name="Caminho 31" d="M405.723,379.754a45.388,45.388,0,0,1-5.98-6.654l-1.642,1.2a47.37,47.37,0,0,0,7.6,8.149l.021-.021a47.315,47.315,0,0,0,7.6-8.128l-1.642-1.2A42.869,42.869,0,0,1,405.723,379.754Z" transform="translate(-373.779 -373.1)" fill="#2c2d66"/>
      </g>
      <g id="Grupo_5776" data-name="Grupo 5776">
        <path id="Caminho_32" data-name="Caminho 32" d="M184.663,379.87H183.8l1.685-9.77h1.158l-.611,3.559a3.343,3.343,0,0,1,.505-.421,3.3,3.3,0,0,1,.611-.316,2.4,2.4,0,0,1,.821-.126,3.1,3.1,0,0,1,1.179.232,2.643,2.643,0,0,1,.927.653,3.137,3.137,0,0,1,.611.99,3.459,3.459,0,0,1,.232,1.263,4.153,4.153,0,0,1-.316,1.642,4.361,4.361,0,0,1-.821,1.263,3.642,3.642,0,0,1-1.158.821,3.359,3.359,0,0,1-1.327.295,2.635,2.635,0,0,1-.948-.147,3.134,3.134,0,0,1-.653-.337,2.869,2.869,0,0,1-.505-.505Zm2.674-1.011a1.863,1.863,0,0,0,.863-.211,2.629,2.629,0,0,0,.779-.59,3.013,3.013,0,0,0,.569-.906,2.982,2.982,0,0,0,.211-1.158,2.145,2.145,0,0,0-.147-.842,2.379,2.379,0,0,0-.4-.674,1.608,1.608,0,0,0-.59-.421,1.68,1.68,0,0,0-.716-.147,1.863,1.863,0,0,0-.863.211,2.629,2.629,0,0,0-.779.59,3.188,3.188,0,0,0-.569.884,2.912,2.912,0,0,0-.211,1.158,2.326,2.326,0,0,0,.147.863,2.119,2.119,0,0,0,.4.674,1.97,1.97,0,0,0,.59.442A2.05,2.05,0,0,0,187.338,378.86Z" transform="translate(-183.8 -370.1)" fill="#2c2d66"/>
        <path id="Caminho_33" data-name="Caminho 33" d="M221.547,383.3h1.242l1.137,5.348,3.053-5.348h1.306l-4.485,7.77a4.745,4.745,0,0,1-1.053,1.348,1.882,1.882,0,0,1-1.116.421.715.715,0,0,1-.211-.021.748.748,0,0,1-.211-.042c-.063-.021-.147-.042-.211-.063l.168-.926h.19a1.016,1.016,0,0,0,.695-.211,2.116,2.116,0,0,0,.505-.611l.484-.842Z" transform="translate(-213.167 -380.521)" fill="#2c2d66"/>
      </g>
    </g>
  </g>
</svg>
